<?xml version="1.0" encoding="UTF-8" standalone="no"?>
<svg
   id="Réteg_2"
   viewBox="0 0 1354.27 269"
   version="1.1"
   sodipodi:docname="eotvoscoll-nagy.svg"
   inkscape:version="1.2.2 (732a01da63, 2022-12-09, custom)"
   xmlns:inkscape="http://www.inkscape.org/namespaces/inkscape"
   xmlns:sodipodi="http://sodipodi.sourceforge.net/DTD/sodipodi-0.dtd"
   xmlns="http://www.w3.org/2000/svg"
   xmlns:svg="http://www.w3.org/2000/svg">
  <sodipodi:namedview
     id="namedview103"
     pagecolor="#ffffff"
     bordercolor="#000000"
     borderopacity="0.25"
     inkscape:showpageshadow="2"
     inkscape:pageopacity="0.0"
     inkscape:pagecheckerboard="0"
     inkscape:deskcolor="#d1d1d1"
     showgrid="false"
     inkscape:zoom="0.68399202"
     inkscape:cx="532.16995"
     inkscape:cy="282.16704"
     inkscape:window-width="1920"
     inkscape:window-height="1043"
     inkscape:window-x="1920"
     inkscape:window-y="0"
     inkscape:window-maximized="1"
     inkscape:current-layer="Réteg_2" />
  <defs
     id="defs20">
    <style
       id="style18">.cls-1{fill:#fff;}</style>
  </defs>
  <g
     id="FEJLÉC"
     style="fill:#012850;fill-opacity:1">
    <g
       id="ELTE"
       style="fill:#012850;fill-opacity:1">
      <g
         id="logó"
         style="fill:#012850;fill-opacity:1">
        <path
           class="cls-1"
           d="m 134.26,237.63 c 56.59,0 102.64,-46.04 102.64,-102.64 0,-3.22 -0.15,-6.47 -0.45,-9.66 -0.03,-0.32 -0.32,-0.56 -0.65,-0.53 l -0.89,0.09 c -0.32,0.03 -0.55,0.32 -0.52,0.64 0.29,3.13 0.44,6.31 0.44,9.47 0,55.45 -45.12,100.57 -100.57,100.57 -55.45,0 -100.57,-45.12 -100.57,-100.57 0,-26.09 9.95,-50.83 28.02,-69.64 17.88,-18.62 41.85,-29.55 67.56,-30.8 0.32,-0.02 0.57,-0.29 0.56,-0.61 l -0.04,-0.89 c -0.01,-0.33 -0.29,-0.58 -0.62,-0.56 -26.23,1.28 -50.7,12.43 -68.95,31.44 -18.44,19.2 -28.59,44.45 -28.59,71.08 0,56.59 46.04,102.64 102.64,102.64 z"
           id="path22"
           style="fill:#012850;fill-opacity:1" />
        <path
           class="cls-1"
           d="M 269,134.5 C 269,98.57 255.01,64.8 229.61,39.39 204.2,13.99 170.43,0 134.5,0 98.57,0 64.8,13.99 39.39,39.39 13.99,64.8 0,98.57 0,134.5 c 0,27.67 8.33,54.23 24.09,76.83 0.19,0.27 0.56,0.33 0.83,0.15 l 0.72,-0.51 c 0.27,-0.19 0.33,-0.55 0.14,-0.82 C 10.11,187.67 1.9,161.22 2.07,133.67 2.29,98.31 16.73,64.38 42.04,39.68 66.94,15.39 99.74,2.04 134.6,2.07 c 35.11,0.03 68.72,13.96 93.55,38.79 25.12,25.12 38.91,58.56 38.79,94.1 -0.12,35.01 -14.03,68.43 -38.79,93.19 -25.01,25.01 -58.27,38.79 -93.64,38.79 -3.92,0 -7.87,-0.17 -11.75,-0.51 -0.32,-0.03 -0.61,0.21 -0.64,0.53 l -0.08,0.88 c -0.03,0.33 0.21,0.62 0.54,0.65 3.95,0.35 7.96,0.52 11.93,0.52 35.93,0 69.7,-13.99 95.11,-39.39 25.4,-25.4 39.39,-59.18 39.39,-95.11 z"
           id="path24"
           style="fill:#012850;fill-opacity:1" />
        <path
           class="cls-1"
           d="m 132.86,51.02 c -0.13,0.04 -0.26,0.08 -0.38,0.11 -0.18,0.05 -0.34,0.1 -0.5,0.16 -1.18,0.39 -2.21,1.18 -2.88,2.19 -0.13,0.13 -0.2,0.26 -0.26,0.38 -0.13,0.26 -0.39,0.44 -0.68,0.44 -0.17,0.03 -0.32,0.06 -0.47,0.08 -0.15,0.03 -0.3,0.05 -0.46,0.08 -1.23,0.2 -2.51,0.5 -4.04,0.94 -5.87,1.65 -11.32,4.74 -15.75,8.95 -3.14,2.97 -5.72,6.47 -7.68,10.39 -0.06,0.11 -0.11,0.24 -0.17,0.37 -0.05,0.12 -0.11,0.24 -0.15,0.33 -0.15,0.22 -0.12,0.49 0.07,0.67 0.14,0.17 0.27,0.33 0.4,0.48 l 0.37,0.45 c 0.51,0.6 1.15,1.4 1.69,2.29 0.49,0.74 0.97,1.61 1.47,2.67 1.31,2.74 2.3,5.27 3.01,7.73 0.34,1.1 0.64,2.26 0.92,3.38 0.13,0.5 0.26,1.01 0.39,1.51 0.17,0.66 0.33,1.31 0.5,1.95 0.17,0.65 0.33,1.29 0.5,1.96 0.06,0.18 0.16,0.34 0.48,0.35 l 3.36,-0.39 c 0.71,-0.11 1.36,-0.16 2.08,-0.22 l 1.7,-0.16 c 0.71,-0.05 1.48,-0.11 2.25,-0.16 l 2.58,-0.16 c 1.1,-0.06 2.2,-0.11 3.19,-0.16 h 0.15 c 0.94,-0.06 1.82,-0.11 2.76,-0.11 2.81,-0.08 5.73,-0.13 8.54,-0.08 0.87,0.01 1.73,0.03 2.61,0.03 1.17,0 2.36,0.05 3.51,0.1 0.59,0.02 1.17,0.05 1.77,0.07 0.24,0 0.47,0.01 0.7,0.03 0.24,0.01 0.46,0.03 0.71,0.03 l 2.75,0.16 2.91,0.22 c 0.5,0.06 0.99,0.11 1.54,0.16 l 3.24,0.33 3,0.39 h 0.16 c 0.14,0 0.23,-0.1 0.3,-0.17 0.1,-0.1 0.11,-0.21 0.11,-0.28 0.14,-0.51 0.27,-1.01 0.41,-1.51 0.14,-0.51 0.28,-1.02 0.41,-1.54 l 0.05,-0.22 c 0.09,-0.38 0.19,-0.77 0.33,-1.16 0.03,-0.13 0.06,-0.25 0.1,-0.36 0.04,-0.13 0.09,-0.26 0.11,-0.4 0.54,-1.99 1.1,-4.05 1.81,-6.03 0.68,-1.99 1.45,-3.84 2.35,-5.64 1.02,-1.98 2.16,-3.7 3.48,-5.23 l 0.09,-0.1 c 0.35,-0.28 0.36,-0.75 0.18,-1.08 l -0.02,-0.09 c -5.1,-10.59 -15.08,-18.24 -26.69,-20.45 -0.6,-0.11 -1.25,-0.22 -1.91,-0.33 h -0.05 c -0.21,0 -0.4,-0.13 -0.48,-0.32 l -0.03,-0.07 -0.03,-0.03 c 0,0 -0.03,-0.07 -0.07,-0.11 -0.73,-1.27 -1.95,-2.2 -3.45,-2.6 -0.14,-0.05 -0.28,-0.09 -0.45,-0.14 0,-0.02 -0.02,-0.05 -0.03,-0.08 -0.02,-0.04 -0.04,-0.1 -0.05,-0.11 -0.05,-0.7 -0.05,-1.41 0,-2.07 l 0.04,-0.13 v 0 l 0.06,-0.06 c 0,0 0.11,-0.01 0.15,-0.01 h 0.88 c 0.12,0 0.24,-0.01 0.35,-0.03 0.1,-0.01 0.2,-0.03 0.31,-0.03 0.21,0 0.36,-0.19 0.36,-0.32 l 0.06,-0.29 c 0.06,-0.39 0,-0.73 -0.04,-1.08 v -0.04 c 0,-0.19 -0.16,-0.33 -0.31,-0.35 -0.14,-0.06 -0.27,-0.06 -0.38,-0.06 h -0.98 c -0.16,0.05 -0.33,0 -0.46,-0.03 l -0.06,-0.06 c 0,0 -0.01,-0.11 -0.01,-0.15 V 44.11 L 135.16,44 135.1,43.94 c -0.05,-0.07 -0.15,-0.19 -0.33,-0.19 h -1.37 c -0.2,0 -0.47,0.04 -0.47,0.41 v 2.02 c 0,0 0,0.03 -0.01,0.05 -0.01,0.04 -0.03,0.1 -0.04,0.15 l -0.04,0.04 c 0,0 -0.11,0 -0.15,0 h -0.88 c -0.23,0 -0.52,0 -0.71,0.05 -0.16,0 -0.36,0.2 -0.35,0.31 -0.12,0.47 -0.12,0.99 0.02,1.51 0.04,0.07 0.14,0.27 0.39,0.27 h 1.7 c 0.05,0 0.08,0.02 0.08,0.03 v 2.31 c 0,0 -0.05,0.07 -0.09,0.09 z m -1.02,18.91 c 0.46,-0.41 1.02,-0.67 1.67,-0.78 0.2,-0.04 0.41,-0.05 0.62,-0.05 0.38,0 0.77,0.05 1.16,0.16 0.51,0.15 0.98,0.41 1.36,0.73 0.87,0.76 1.49,1.82 1.7,2.92 0.11,0.54 0.16,1.09 0.16,1.67 v 9.28 c 0,0 -0.03,0.03 -0.08,0.03 h -8.46 c 0,0 -0.03,-0.03 -0.03,-0.08 v -9.73 c 0,-0.61 0.07,-1.11 0.21,-1.55 0.25,-0.94 0.85,-1.86 1.7,-2.6 z m -0.47,-7.55 c 0.36,0.15 0.68,0.27 1.12,0.39 1.21,0.33 2.56,0.25 3.8,-0.22 l 0.46,-0.15 c -0.11,0.56 -0.17,1.08 -0.22,1.61 -0.05,0.76 -0.17,1.54 -0.28,2.32 0,0.31 -0.05,0.61 -0.11,0.96 l -1.54,-0.33 c -0.17,-0.03 -0.36,-0.04 -0.56,-0.04 -0.2,0 -0.41,0.01 -0.62,0.05 l -1.25,0.29 c -0.05,0.03 -0.1,0.03 -0.17,0.03 l -0.04,-0.04 -0.28,-2.3 c -0.06,-0.78 -0.17,-1.56 -0.28,-2.36 -0.02,-0.06 -0.03,-0.13 -0.03,-0.2 z m -2.46,-1.7 c 0,0 0.04,0 0.04,-0.01 0,0 0.02,0.03 0.04,0.09 l 0.05,0.08 c 0,0 0,0.06 0,0.12 0.06,0.38 0.1,0.75 0.14,1.14 0.04,0.35 0.08,0.7 0.13,1.06 0.05,0.38 0.11,0.78 0.16,1.18 0.05,0.4 0.11,0.8 0.16,1.18 l 0.33,2.72 c 0.04,0.16 0,0.31 -0.11,0.42 l -0.04,0.05 c -0.04,0.08 -0.14,0.18 -0.25,0.29 -1.01,1.12 -1.64,2.53 -1.81,4.06 -0.11,0.73 -0.11,1.4 -0.11,2.12 v 7.81 l 0.02,0.85 -1.45,0.08 c 0,0 -0.07,-0.05 -0.08,-0.24 -0.03,-0.21 -0.03,-0.35 -0.03,-0.58 l -0.17,-4.57 c 0,-1.21 -0.06,-2.45 -0.11,-3.65 -0.06,-0.65 -0.12,-1.19 -0.28,-1.79 -0.29,-1.17 -0.94,-2.24 -1.81,-3 -0.44,-0.44 -1,-0.84 -1.58,-1.13 -1,-0.56 -2.19,-0.8 -3.35,-0.68 -1.59,0.11 -3.02,0.86 -4.04,2.1 -0.81,0.93 -1.36,2.01 -1.59,3.12 -0.13,0.76 -0.16,1.42 -0.11,2.03 0.06,0.72 0.17,1.45 0.33,2.16 0.44,2.37 0.94,4.77 1.43,7.1 v 0.04 c 0,0 0.04,0.04 0.04,0.04 0,0.02 0,0.06 0.01,0.06 v 0 c 0,0 -0.02,0.03 -0.04,0.04 -0.08,0.04 -0.16,0.08 -0.25,0.08 l -1.01,0.16 h -0.12 c -0.1,-0.17 -0.14,-0.34 -0.19,-0.58 -0.66,-2.03 -1.51,-4.16 -2.6,-6.51 l -0.5,-1 c -0.56,-0.95 -1.4,-1.75 -2.39,-2.27 l -0.19,-0.09 c 0,0 -0.12,-0.09 -0.13,-0.08 0,0 0,-0.03 0.07,-0.11 2.08,-3.29 4.84,-6.2 7.97,-8.41 3.19,-2.25 6.7,-3.89 10.43,-4.86 0.85,-0.2 1.87,-0.43 2.93,-0.61 z m -4.76,22.91 v 0.49 c 0,0.06 -0.02,0.08 -0.1,0.08 l -6.81,0.55 c 0,0 -0.01,-0.01 -0.04,-0.06 -0.02,-0.03 -0.03,-0.09 -0.04,-0.14 -0.01,-0.07 -0.03,-0.14 -0.06,-0.22 l -0.22,-1.02 c -0.43,-1.99 -0.83,-3.87 -1.2,-5.82 -0.06,-0.3 -0.11,-0.59 -0.16,-0.88 -0.06,-0.29 -0.11,-0.58 -0.16,-0.88 -0.26,-1.47 0.25,-2.99 1.39,-4.08 0.25,-0.3 0.56,-0.51 0.94,-0.73 0.76,-0.46 1.75,-0.57 2.66,-0.31 1.62,0.42 2.84,1.66 3.27,3.33 0.1,0.35 0.16,0.77 0.16,1.16 0.05,1.43 0.11,2.91 0.16,5 0,0.78 0.11,2.18 0.22,3.52 z m 4.27,-24.98 c 0,0 0,0 0,0 0,0 0,0 0,0 0,0 0,0 0,0 z m -25.51,15.57 c 5.05,-8.73 13.54,-14.95 23.3,-17.06 0.44,-0.11 0.93,-0.22 1.43,-0.33 0.1,-0.03 0.2,-0.04 0.31,-0.05 0.09,-0.01 0.18,-0.02 0.28,-0.04 v 0.12 c 0,0.53 0.06,1.09 0.16,1.54 v 0.26 c -0.08,0.02 -0.15,0.03 -0.22,0.04 -0.11,0.02 -0.21,0.03 -0.28,0.06 -2.92,0.51 -5.73,1.4 -8.35,2.65 -4.14,1.96 -7.75,4.66 -10.73,8.02 -0.98,1.13 -1.92,2.38 -2.89,3.83 -0.12,0.23 -0.28,0.49 -0.42,0.68 l -0.03,0.06 c -0.02,0.07 -0.12,0.09 -0.19,0.09 l -0.66,-0.06 h -0.02 c -0.55,0 -1.13,0.03 -1.73,0.25 0,-0.02 0.02,-0.05 0.03,-0.07 z m 5.3,12.26 c 0,0 -0.09,0.03 -0.14,0.04 -0.06,0.01 -0.12,0.02 -0.18,0.05 0,0 -0.02,-0.01 -0.03,-0.02 -0.01,-0.03 -0.02,-0.06 -0.03,-0.1 -0.02,-0.06 -0.03,-0.13 -0.06,-0.18 -0.54,-1.61 -1.24,-3.3 -2.21,-5.3 -0.68,-1.41 -1.56,-2.86 -2.59,-4.29 l -0.14,-0.27 h 0.01 c 1.03,-0.29 1.97,-0.31 2.86,-0.06 0.33,0.09 0.69,0.24 1.07,0.43 0.78,0.36 1.41,0.99 1.77,1.77 0.59,1.29 1.2,2.63 1.7,4 0.16,0.47 0.33,0.92 0.5,1.38 0.16,0.45 0.33,0.91 0.49,1.37 0.04,0.12 0.08,0.23 0.09,0.33 -0.1,0.06 -0.18,0.1 -0.29,0.13 l -2.84,0.73 z m 51.74,2.06 -0.16,0.47 c -0.22,0.65 -0.43,1.27 -0.61,1.94 -0.11,0.41 -0.23,0.81 -0.36,1.2 -0.12,0.4 -0.25,0.8 -0.36,1.21 l -0.99,3.13 -0.02,0.03 c -0.06,0.16 -0.29,0.08 -0.48,0.05 l -4.86,-0.55 c -0.38,-0.03 -0.78,-0.07 -1.18,-0.11 -0.4,-0.04 -0.8,-0.08 -1.19,-0.11 l -5.49,-0.38 -0.51,-0.06 c -0.62,-0.02 -1.24,-0.04 -1.87,-0.07 -1.23,-0.05 -2.5,-0.1 -3.75,-0.1 -0.8,0 -1.59,-0.01 -2.39,-0.03 -0.8,-0.01 -1.59,-0.03 -2.39,-0.03 v 0 c -0.99,0.03 -1.96,0.04 -2.94,0.05 -0.98,0.01 -1.95,0.03 -2.94,0.06 -1,0 -2,0.06 -2.98,0.11 l -3.19,0.16 c -0.93,0.05 -1.81,0.11 -2.7,0.17 l -3.96,0.33 -2.03,0.22 -1.85,0.16 c -0.11,0 -0.13,-0.03 -0.15,-0.09 -0.05,-0.16 -0.11,-0.38 -0.16,-0.59 -0.23,-0.91 -0.48,-1.83 -0.72,-2.75 -0.33,-1.26 -0.67,-2.52 -1,-3.83 -0.1,-0.2 -0.15,-0.4 -0.2,-0.57 0,-0.02 0,-0.03 0.03,-0.05 l 0.39,-0.15 c 1.13,-0.34 2.22,-0.61 3.34,-0.82 0.85,-0.18 1.75,-0.31 2.61,-0.44 0.47,-0.07 0.94,-0.14 1.39,-0.22 0.38,-0.05 0.78,-0.1 1.17,-0.14 0.4,-0.04 0.8,-0.08 1.19,-0.14 0.98,-0.11 2.01,-0.22 3.07,-0.33 0.33,-0.03 0.63,-0.04 0.93,-0.05 0.3,-0.01 0.61,-0.03 0.94,-0.06 0.33,-0.03 0.67,-0.04 1.01,-0.05 0.35,-0.01 0.69,-0.03 1.02,-0.06 2.4,-0.11 4.86,-0.16 7.3,-0.16 1.49,0 2.99,0.05 4.44,0.1 0.75,0.02 1.5,0.05 2.27,0.07 0.77,0 1.58,0.05 2.36,0.1 0.39,0.02 0.77,0.05 1.14,0.07 l 6.27,0.44 c 0.93,0.05 1.81,0.16 2.69,0.27 1.24,0.16 2.52,0.33 3.78,0.55 l 0.11,0.02 c 1.12,0.21 2.23,0.43 3.3,0.64 0.13,0.03 0.25,0.07 0.36,0.1 0.11,0.04 0.23,0.08 0.35,0.1 -0.03,0.06 -0.04,0.13 -0.04,0.17 z m -8.8,-3.9 -0.05,0.05 h -0.36 c -0.33,0 -0.59,0 -0.92,-0.05 l -5.4,-0.46 h -0.14 v -0.22 c 0,-0.87 0,-1.7 0.05,-2.51 0.03,-0.31 0.04,-0.61 0.06,-0.92 0.01,-0.3 0.03,-0.6 0.05,-0.9 v 0 c 0.06,-1.39 0.06,-2.76 0.06,-4.09 0,-0.38 0.04,-0.72 0.09,-1.11 l 0.02,-0.13 c 0.05,-0.43 0.19,-0.85 0.42,-1.25 0.44,-0.77 1.08,-1.45 1.8,-1.91 1.56,-0.99 3.68,-0.72 4.92,0.62 0.63,0.74 1.02,1.54 1.17,2.38 0.11,0.63 0.11,1.22 0,1.8 -0.11,0.5 -0.21,0.99 -0.3,1.49 -0.1,0.49 -0.19,0.99 -0.3,1.49 -0.14,0.74 -0.29,1.48 -0.44,2.22 -0.15,0.74 -0.3,1.49 -0.44,2.22 l -0.28,1.2 c 0,0 0,0.08 0,0.08 z m 14.35,-8.13 c -0.04,0.06 -0.07,0.12 -0.13,0.18 -0.82,1.13 -1.6,2.43 -2.32,3.87 -0.84,1.62 -1.62,3.42 -2.33,5.37 -0.02,0.1 -0.06,0.19 -0.1,0.27 -0.04,0.09 -0.07,0.17 -0.1,0.27 -0.02,0.01 -0.04,0.03 -0.05,0.03 h -0.09 l -3.17,-0.82 h -0.05 c 0,0 -0.08,0 -0.08,0 l -0.04,-0.04 c 0,0 0.03,-0.08 0.04,-0.12 0,-0.03 0.02,-0.07 0.05,-0.13 0.64,-1.9 1.46,-3.98 2.53,-6.37 0.07,-0.18 0.17,-0.36 0.26,-0.53 0.04,-0.08 0.08,-0.16 0.12,-0.22 0.38,-0.7 0.9,-1.21 1.57,-1.51 0.92,-0.49 1.89,-0.68 2.85,-0.58 h 0.07 c 0.32,0.06 0.69,0.11 1.01,0.23 0,0 0.01,0.02 0.02,0.03 -0.02,0.03 -0.04,0.06 -0.05,0.09 z M 140.07,58.45 c 0.02,-0.06 0.03,-0.13 0.03,-0.17 0.05,-0.26 0.11,-0.61 0.11,-0.97 0,-0.1 0.01,-0.22 0.03,-0.34 0.01,-0.13 0.03,-0.26 0.03,-0.38 0,0 0.03,-0.02 0.07,-0.02 0.55,0.11 1.15,0.22 1.79,0.32 4.06,0.87 8.09,2.51 11.65,4.76 4.77,3.01 8.77,7.15 11.57,11.94 0.04,0.13 0.13,0.27 0.21,0.39 0.03,0.05 0.06,0.1 0.08,0.13 0,0.02 0.02,0.04 0.02,0.05 -0.02,0 -0.02,0 -0.03,0 -0.55,-0.13 -1.13,-0.19 -1.69,-0.19 -0.19,0 -0.37,0 -0.55,0.02 h -0.27 c -0.08,0 -0.18,-0.01 -0.2,-0.09 v -0.04 c 0,0 -0.07,-0.05 -0.07,-0.05 -4.61,-7.4 -12.1,-12.79 -20.57,-14.76 -0.33,-0.08 -0.68,-0.15 -1.02,-0.22 -0.34,-0.07 -0.68,-0.14 -1,-0.21 l -0.2,-0.04 c 0,0 0.01,-0.07 0.02,-0.12 z m -1.92,9.74 c 0.01,-0.11 0.03,-0.21 0.03,-0.31 0.11,-0.93 0.22,-1.81 0.33,-2.69 l 0.33,-2.31 c 0.03,-0.22 0.05,-0.45 0.08,-0.69 0.03,-0.23 0.06,-0.47 0.08,-0.66 0.03,-0.12 0.04,-0.25 0.06,-0.38 0.01,-0.11 0.02,-0.23 0.08,-0.35 0.21,0 0.48,0.03 0.85,0.11 1.02,0.17 1.99,0.39 2.89,0.65 4.59,1.31 8.73,3.59 12.29,6.77 1.89,1.77 3.43,3.53 4.71,5.36 0.16,0.21 0.32,0.43 0.43,0.64 l 0.13,0.21 c 0.06,0.1 0.13,0.2 0.14,0.2 -0.02,0.03 -0.15,0.1 -0.27,0.17 L 160.16,75 c -1.11,0.64 -2,1.61 -2.5,2.72 -0.32,0.64 -0.6,1.26 -0.88,1.93 -0.72,1.61 -1.34,3.28 -1.94,4.93 -0.05,0.19 -0.15,0.45 -0.26,0.68 h -0.02 c 0,0 -1.36,-0.21 -1.36,-0.21 -0.01,-0.01 -0.01,-0.01 -0.01,0 0.02,-0.14 0.06,-0.29 0.09,-0.45 0.05,-0.21 0.1,-0.43 0.13,-0.65 0.43,-2 0.88,-4.07 1.26,-6.1 L 155,76.03 c 0.29,-1.68 -0.07,-3.37 -1.02,-4.76 -0.4,-0.6 -0.79,-1.06 -1.18,-1.41 -0.84,-0.78 -1.97,-1.31 -3.18,-1.48 -1.24,-0.17 -2.53,0.09 -3.64,0.74 -1.63,0.87 -2.87,2.44 -3.39,4.3 -0.12,0.42 -0.17,0.77 -0.17,1.14 -0.03,0.5 -0.04,0.99 -0.06,1.49 -0.01,0.49 -0.03,0.99 -0.06,1.48 l -0.16,4.79 c 0,0.24 -0.01,0.47 -0.03,0.7 -0.01,0.24 -0.01,0.39 -0.01,0.64 0,0.03 0,0.32 -0.04,0.39 h -0.16 c 0,0 -1.27,-0.05 -1.27,-0.05 0,0 -0.03,-0.03 -0.03,-0.08 V 78.7 c 0,-1.46 0,-2.98 -0.17,-4.51 0,-0.78 -0.11,-1.52 -0.34,-2.25 -0.37,-1.23 -0.96,-2.26 -1.75,-3.05 l -0.11,-0.11 c -0.07,-0.07 -0.11,-0.18 -0.11,-0.3 0,-0.1 0.01,-0.19 0.03,-0.27 z m -4.07,-15.03 c 0.59,0 1.17,0.11 1.67,0.31 0.04,0.02 0.08,0.04 0.12,0.06 0.09,0.04 0.2,0.08 0.3,0.15 1.81,1.12 2.4,3.47 1.31,5.23 -0.43,0.7 -1.01,1.21 -1.73,1.52 -0.54,0.25 -1.11,0.37 -1.73,0.37 -0.32,0 -0.57,0 -0.88,-0.1 -0.87,-0.26 -1.62,-0.77 -2.2,-1.51 -0.31,-0.49 -0.49,-0.9 -0.58,-1.3 -0.06,-0.33 -0.11,-0.64 -0.11,-0.96 0,-2.08 1.71,-3.76 3.82,-3.76 z"
           id="path26"
           style="fill:#012850;fill-opacity:1" />
        <path
           class="cls-1"
           d="m 143.81,207.68 c -0.54,0.11 -1.09,0.22 -1.64,0.27 -0.85,0.11 -1.72,0.05 -2.57,-0.16 l -4.41,-1.1 c -0.57,-0.11 -1.21,-0.11 -1.82,0 -0.45,0.06 -0.9,0.17 -1.34,0.28 -0.55,0.14 -1.08,0.27 -1.61,0.41 -0.54,0.14 -1.08,0.28 -1.63,0.42 -1.08,0.26 -2.22,0.27 -3.37,0.06 -0.11,-0.03 -0.24,-0.06 -0.36,-0.08 -0.12,-0.03 -0.24,-0.05 -0.35,-0.08 l -1.2,-0.28 h -0.22 c -0.16,0 -0.3,0.14 -0.3,0.3 v 0.05 l 0.03,0.05 c 0.18,0.3 0.37,0.54 0.66,0.72 0.43,0.31 0.83,0.52 1.25,0.68 0.88,0.38 1.83,0.57 2.78,0.57 0.32,0 0.64,-0.02 0.96,-0.06 0.88,-0.17 1.71,-0.33 2.53,-0.49 0.19,-0.03 0.38,-0.07 0.57,-0.11 0.41,-0.09 0.84,-0.18 1.28,-0.21 1.16,-0.12 2.14,-0.09 3.02,0.11 0.5,0.11 0.98,0.21 1.46,0.3 0.48,0.1 0.96,0.19 1.46,0.3 0.58,0.12 1.09,0.17 1.63,0.17 0.68,0 1.3,-0.11 1.91,-0.22 0.69,-0.16 1.33,-0.43 1.98,-0.85 0.34,-0.2 0.55,-0.38 0.7,-0.58 0.06,-0.06 0.08,-0.13 0.11,-0.22 l 0.06,-0.06 v -0.44 h -0.33 c -0.34,0.05 -0.75,0.14 -1.22,0.28 z"
           id="path28"
           style="fill:#012850;fill-opacity:1" />
        <path
           class="cls-1"
           d="m 125.13,202.43 0.16,-0.02 c 0.96,-0.16 1.87,-0.53 2.78,-1.14 0.23,-0.17 0.46,-0.35 0.63,-0.57 0.06,-0.06 0.08,-0.13 0.11,-0.22 l 0.06,-0.06 v -0.27 l -0.06,-0.06 c -0.08,-0.08 -0.12,-0.11 -0.25,-0.11 -0.18,0 -0.36,0 -0.55,0.06 -0.73,0.22 -1.44,0.38 -2.18,0.49 -0.85,0.16 -1.72,0.16 -2.56,0 l -0.47,-0.1 c -0.9,-0.19 -1.83,-0.38 -2.71,-0.61 -0.66,-0.19 -1.54,-0.43 -2.42,-0.61 -0.6,-0.16 -1.27,-0.18 -1.96,-0.06 -0.6,0.11 -1.22,0.22 -1.82,0.39 -1.09,0.27 -2.23,0.54 -3.41,0.82 -1.23,0.32 -2.58,0.32 -3.8,0 -0.59,-0.18 -1.12,-0.29 -1.59,-0.38 -0.2,-0.06 -0.38,-0.06 -0.56,-0.06 -0.06,0 -0.25,0.02 -0.25,0.3 l 0.02,0.09 c 0.06,0.13 0.12,0.25 0.2,0.33 0.28,0.28 0.57,0.57 0.92,0.74 0.75,0.46 1.59,0.79 2.43,0.96 0.77,0.13 1.37,0.16 1.97,0.11 0.49,-0.04 0.98,-0.13 1.45,-0.21 0.24,-0.04 0.47,-0.08 0.72,-0.12 1.02,-0.22 2.08,-0.44 3.12,-0.6 0.72,-0.12 1.36,-0.16 1.93,-0.11 0.6,0.05 1.21,0.17 1.79,0.27 0.55,0.12 1.1,0.23 1.66,0.33 0.45,0.09 0.9,0.17 1.35,0.27 0.51,0.15 1.07,0.23 1.7,0.23 0.51,0 1.03,-0.05 1.57,-0.1 z"
           id="path30"
           style="fill:#012850;fill-opacity:1" />
        <path
           class="cls-1"
           d="m 163.76,199.94 c -0.18,0 -0.36,0 -0.55,0.06 -0.88,0.27 -1.71,0.44 -2.55,0.6 -0.48,0.05 -1.02,0.05 -1.55,0 -0.75,-0.11 -1.53,-0.22 -2.24,-0.38 l -3.08,-0.66 c -1.16,-0.24 -2.27,-0.21 -3.28,0.11 -0.52,0.14 -1.03,0.27 -1.54,0.41 -0.51,0.14 -1.02,0.27 -1.55,0.42 -0.6,0.2 -1.3,0.37 -2,0.49 -0.69,0.11 -1.39,0.11 -2.08,0 l -1.86,-0.38 c -0.23,-0.06 -0.46,-0.12 -0.71,-0.12 -0.16,0 -0.3,0.14 -0.3,0.3 l 0.02,0.11 0.06,0.06 c 0,0 0.04,0.08 0.08,0.12 0.21,0.27 0.5,0.51 0.82,0.71 0.39,0.22 0.78,0.45 1.23,0.62 0.78,0.33 1.63,0.49 2.55,0.49 0.26,0 0.53,-0.01 0.81,-0.04 0.16,-0.03 0.34,-0.06 0.52,-0.08 0.18,-0.03 0.36,-0.06 0.53,-0.08 0.52,-0.11 1.06,-0.23 1.6,-0.36 0.53,-0.12 1.07,-0.25 1.6,-0.36 1.21,-0.3 2.54,-0.34 3.92,-0.11 0.6,0.15 1.2,0.25 1.78,0.35 0.29,0.05 0.58,0.1 0.88,0.15 l 0.14,0.02 c 0.61,0.1 1.19,0.2 1.81,0.2 0.62,0 1.18,-0.07 1.8,-0.22 0.75,-0.15 1.59,-0.5 2.43,-1.02 0.32,-0.21 0.6,-0.48 0.92,-0.86 l 0.04,-0.05 v -0.02 c 0,0 0.06,-0.08 0.06,-0.16 l -0.02,-0.09 c -0.03,-0.06 -0.13,-0.22 -0.28,-0.22 z"
           id="path32"
           style="fill:#012850;fill-opacity:1" />
        <path
           class="cls-1"
           d="m 108.9,148.81 c 0.93,1.32 2.36,2.09 3.96,2.03 1.1,0 2.2,-0.38 3.08,-1.04 1.15,-0.82 1.81,-2.14 1.87,-3.57 0,-0.71 -0.11,-1.43 -0.44,-2.03 -0.33,-0.77 -0.93,-1.43 -1.7,-1.81 -0.77,-0.38 -1.65,-0.49 -2.53,-0.38 -0.99,0.11 -1.92,0.71 -2.47,1.59 -0.08,0.13 -0.21,0.22 -0.29,0.31 -0.04,0.04 -0.11,0.07 -0.16,0.07 0,-0.13 0.02,-0.22 0.02,-0.33 0.05,-0.72 0.16,-1.48 0.33,-2.2 0.39,-1.48 1.1,-2.91 2.09,-4.07 0.44,-0.55 1.04,-1.04 1.65,-1.43 l 0.27,-0.22 0.05,-0.06 c 0.11,-0.11 0.11,-0.27 0,-0.39 -0.05,-0.05 -0.11,-0.05 -0.16,-0.05 -0.05,0 -0.16,0 -0.22,0.05 -1.59,0.71 -2.97,1.7 -4.12,3.02 -1.87,2.2 -2.69,5.06 -2.25,7.92 0.16,0.93 0.49,1.81 1.04,2.58 z m 1.65,-2.97 c 0.11,-0.6 0.33,-1.21 0.71,-1.7 0.16,-0.27 0.38,-0.49 0.6,-0.66 0.77,-0.55 1.81,-0.49 2.53,0.11 0.33,0.27 0.6,0.66 0.77,1.1 0.22,0.55 0.33,1.04 0.33,1.59 v 0.27 c 0.06,0.6 -0.11,1.26 -0.27,1.7 -0.16,0.38 -0.39,0.71 -0.71,0.99 -0.38,0.33 -0.82,0.49 -1.32,0.55 -0.55,0.06 -1.04,-0.17 -1.43,-0.49 -0.22,-0.16 -0.38,-0.38 -0.55,-0.6 -0.39,-0.55 -0.66,-1.21 -0.71,-1.92 0,-0.27 0,-0.6 0.05,-0.93 z"
           id="path34"
           style="fill:#012850;fill-opacity:1" />
        <path
           class="cls-1"
           d="m 99.55,138.97 c 0.05,0 0.16,-0.06 0.22,-0.06 l 1.37,-0.44 0.33,-0.11 c 0.05,-0.06 0.16,0.06 0.16,0.11 0.05,0.22 0.05,0.39 0.05,0.6 v 10.17 c 0,0.33 -0.16,0.66 -0.38,0.93 -0.03,0.04 -0.05,0.06 -0.05,0.11 0,0.11 0.11,0.16 0.16,0.16 h 2.97 c 0.11,0 0.14,-0.09 0.11,-0.16 -0.03,-0.07 -0.05,-0.11 -0.11,-0.17 -0.22,-0.22 -0.27,-0.49 -0.27,-0.77 v -0.16 c 0,-1.59 -0.06,-3.13 -0.06,-4.73 v -1.98 c 0.06,-1.43 0.06,-2.8 0.06,-4.23 v -2.69 c 0,-0.06 -0.06,-0.16 -0.06,-0.27 0,-0.05 -0.11,-0.11 -0.16,-0.05 -0.16,0.11 -0.27,0.27 -0.44,0.38 -0.44,0.33 -0.82,0.77 -1.26,1.1 -0.55,0.38 -1.1,0.82 -1.65,1.21 -0.33,0.22 -0.6,0.44 -0.93,0.66 -0.05,0.05 -0.11,0.11 -0.16,0.16 0,0.06 0.05,0.22 0.11,0.22 z"
           id="path36"
           style="fill:#012850;fill-opacity:1" />
        <path
           class="cls-1"
           d="m 167.7,141.06 c -1.1,-0.66 -2.47,-0.82 -3.74,-0.44 -0.66,0.16 -1.26,0.49 -1.81,0.93 -0.16,0.11 -0.27,0.22 -0.39,0.33 l -0.11,0.11 c -0.05,0.06 -0.23,0.13 -0.22,-0.11 0.05,-0.84 0.17,-2.47 0.22,-3.41 0,-0.11 0.02,-0.23 0.05,-0.33 0.05,-0.11 0.16,-0.22 0.27,-0.22 h 5.83 c 0.09,0 0.21,-0.03 0.22,-0.33 0.11,-0.6 0.22,-1.15 0.38,-1.7 v -0.06 c 0.06,-0.22 -0.05,-0.27 -0.22,-0.27 -0.44,0.11 -0.88,0.11 -1.32,0.11 h -4.84 c -0.88,0 -0.82,0 -0.88,0.82 -0.11,0.71 -0.11,1.37 -0.16,2.09 l -0.22,3.57 c -0.01,0.36 -0.05,0.55 -0.05,0.82 0,0.17 0.05,0.27 0.22,0.33 0,0 0.2,0.07 0.33,-0.05 l 0.27,-0.27 c 0.49,-0.49 1.1,-0.82 1.81,-0.99 0.49,-0.11 1.04,-0.11 1.59,0 1.04,0.17 1.87,0.93 2.2,1.92 0.11,0.27 0.16,0.6 0.16,0.93 0.06,0.55 0,1.1 -0.11,1.65 -0.33,1.7 -1.59,3.08 -3.24,3.57 -0.71,0.22 -1.48,0.28 -2.2,0.16 l -0.33,-0.05 c -0.05,0.05 -0.11,0.11 -0.11,0.17 0.05,0.11 0.05,0.22 0.11,0.38 l 0.17,0.17 c 0.05,0 0.16,0.05 0.22,0.05 0.93,0.11 1.81,0.11 2.69,-0.11 1.92,-0.38 3.57,-1.65 4.51,-3.41 0.71,-1.32 0.88,-2.86 0.39,-4.29 -0.27,-0.88 -0.88,-1.65 -1.7,-2.09 z"
           id="path38"
           style="fill:#012850;fill-opacity:1" />
        <path
           class="cls-1"
           d="m 157.42,141.77 c -0.33,-0.22 -0.77,-0.33 -1.15,-0.44 -0.27,-0.06 -0.6,-0.17 -0.88,-0.22 l -0.05,-0.05 v -0.05 l 0.49,-0.33 c 0.44,-0.27 0.77,-0.66 1.1,-1.04 0.49,-0.66 0.71,-1.48 0.6,-2.31 -0.06,-0.6 -0.39,-1.15 -0.88,-1.48 -0.27,-0.16 -0.55,-0.33 -0.88,-0.44 -0.88,-0.27 -1.87,-0.33 -2.75,-0.05 -1.32,0.33 -2.47,1.15 -3.3,2.25 -0.11,0.16 -0.11,0.27 0.05,0.44 0.05,0.11 0.16,0.11 0.22,0.06 l 0.6,-0.5 c 0.38,-0.27 0.77,-0.49 1.21,-0.66 0.77,-0.27 1.54,-0.33 2.31,-0.11 0.71,0.17 1.26,0.82 1.32,1.54 0.16,0.82 -0.05,1.65 -0.6,2.25 -0.22,0.27 -0.44,0.49 -0.71,0.66 -0.44,0.33 -0.88,0.55 -1.37,0.77 l -0.66,0.27 c -0.11,0.06 -0.16,0.16 -0.11,0.28 0.05,0.05 0.05,0.16 0.11,0.22 0.06,0.11 0.22,0.16 0.33,0.11 0.22,-0.11 0.44,-0.16 0.66,-0.22 0.49,-0.11 0.93,-0.11 1.43,0 0.88,0.11 1.65,0.71 1.98,1.54 0.11,0.27 0.16,0.6 0.22,0.88 0.06,0.44 0.06,0.93 0,1.37 -0.11,1.15 -0.77,2.2 -1.76,2.8 -0.33,0.22 -0.71,0.39 -1.1,0.49 -0.99,0.27 -2.09,0.33 -3.13,0.16 l -0.66,-0.11 c -0.06,0 -0.06,0.05 -0.06,0.11 v 0.33 c 0,0.11 0.06,0.27 0.22,0.27 0.27,0.06 0.55,0.11 0.82,0.16 1.04,0.11 2.14,0 3.19,-0.27 0.88,-0.27 1.76,-0.66 2.53,-1.15 0.66,-0.49 1.26,-1.04 1.7,-1.76 0.77,-1.15 0.94,-2.64 0.44,-3.96 -0.22,-0.77 -0.77,-1.43 -1.48,-1.81 z"
           id="path40"
           style="fill:#012850;fill-opacity:1" />
        <path
           class="cls-1"
           d="M 173.68,101.38 H 94.26 c -0.31,0 -0.55,0.24 -0.55,0.77 v 85.64 c 0,12.7 10.35,22.28 17.32,25.57 9.35,4.42 13.2,6.11 19.6,8.91 l 2.94,1.28 c 0.28,0.13 0.61,0.13 0.89,0 l 2.2,-0.96 c 7.69,-3.38 10.03,-4.41 20.25,-9.23 5.05,-2.38 11.87,-8.08 15.25,-15.95 1.28,-2.99 2.07,-6.29 2.07,-9.84 v -85.64 c 0,-0.31 -0.25,-0.55 -0.55,-0.55 z m -42.76,2.32 c 0,0 -0.05,-0.14 -0.05,-0.26 l 6.25,0.03 c -0.01,0.11 -0.05,0.3 -0.08,0.39 -0.22,0.76 -0.34,1.66 -0.34,2.99 v 5.55 c 0,0.11 0,0.28 0.14,0.41 0.14,0.14 0.34,0.14 0.73,0.14 h 4.42 c 0.51,0.05 1.07,0.01 1.7,-0.11 0.34,-0.05 0.62,-0.11 0.94,-0.22 0.07,0 0.13,-0.02 0.18,-0.03 0.04,-0.01 0.09,-0.02 0.12,-0.02 h 0.03 v 5.96 c 0,0 -0.09,-0.02 -0.13,-0.03 -0.05,-0.01 -0.11,-0.02 -0.17,-0.05 -0.74,-0.22 -1.47,-0.34 -2.26,-0.34 h -5.05 c -0.61,0.07 -0.65,0.18 -0.65,0.86 v 7.23 c 0,0.21 0.19,0.36 0.36,0.36 h 4.57 l 3.78,-0.06 c 0.73,0.05 1.47,-0.04 2.27,-0.28 0.14,-0.04 0.22,-0.07 0.3,-0.1 0.11,-0.04 0.16,0 0.15,0.08 0,0.09 0,0.21 0,0.33 v 5.54 c 0,0.06 -0.05,0.06 -0.08,0.05 -0.04,-0.01 -0.09,-0.03 -0.14,-0.05 l -0.08,-0.03 c -0.73,-0.22 -1.51,-0.34 -2.32,-0.34 h -7.75 c -0.12,0 -0.26,0 -0.43,0 -0.4,0 -0.59,0.23 -0.61,0.42 -0.03,0.19 -0.03,0.38 -0.03,0.61 v 6.36 c 0,0 -0.1,-0.42 -0.25,-0.73 -0.18,-0.37 -1.06,-1.22 -1.68,-1.63 -0.39,-0.35 -1.05,-0.33 -1.45,-0.03 -0.61,0.41 -1.06,0.79 -1.64,1.5 -0.09,0.14 -0.38,0.57 -0.37,0.88 v -7.05 c 0,-0.21 -0.24,-0.35 -0.41,-0.35 h -7.87 c -0.51,0 -0.94,0 -1.43,0.06 -0.5,0 -1,0.09 -1.57,0.28 -0.07,0.02 -0.16,0.05 -0.16,-0.06 v -5.86 c 0,0 0.09,0.02 0.13,0.03 0.06,0 0.11,0.02 0.17,0.05 0.3,0.1 0.65,0.16 0.95,0.2 l 0.12,0.02 c 0.26,0.05 0.62,0.12 0.97,0.12 h 7.96 c 0.12,0 0.25,-0.01 0.38,-0.03 0.12,-0.01 0.23,-0.03 0.34,-0.03 0.22,0 0.41,-0.2 0.41,-0.41 v -7.53 c 0,-0.13 -0.13,-0.28 -0.26,-0.34 -0.11,-0.08 -0.2,-0.08 -0.26,-0.08 h -4.94 c -1.04,0 -2.01,0.21 -2.73,0.39 l -0.24,0.05 h -0.03 v -5.99 l 0.3,0.05 c 0.72,0.22 1.47,0.34 2.2,0.34 h 4.88 c 0.23,0 0.47,0 0.75,-0.08 0.12,-0.06 0.32,-0.16 0.32,-0.39 v -5.81 c 0.05,-0.92 -0.08,-1.92 -0.4,-2.98 z m 8.91,38.98 c 0,-0.07 -0.02,-0.14 -0.02,-0.2 0,-0.26 0.1,-0.49 0.2,-0.74 0.14,-0.41 0.41,-0.72 0.84,-0.93 0.49,-0.24 1.04,-0.31 1.67,-0.2 0.05,0 0.09,0 0.13,0.01 l -0.05,0.1 c -0.38,0.16 -0.66,0.47 -0.94,0.89 -0.06,0.11 -0.14,0.18 -0.18,0.28 -0.04,0.09 -0.08,0.18 -0.14,0.3 -0.28,0.61 -0.45,1.3 -0.51,2.01 -0.03,0.39 -0.09,0.94 -0.09,1.36 l -0.34,-0.03 c -1.56,-0.07 -2.84,-0.14 -4.24,-0.16 -0.84,-0.01 -1.69,-0.05 -2.52,-0.05 h -0.14 l -3.95,0.16 c 0,0 -1.81,0.04 -2.02,0.05 -0.22,0.01 -0.25,-0.11 -0.26,-0.18 -0.03,-0.26 -0.04,-0.52 -0.06,-0.77 -0.06,-0.5 -0.17,-1.01 -0.28,-1.53 l -0.07,-0.2 c -0.09,-0.28 -0.19,-0.59 -0.32,-0.85 -0.2,-0.55 -0.61,-1.02 -1.11,-1.29 0.52,-0.09 1.05,-0.03 1.51,0.16 0.61,0.26 1.24,0.83 1.25,1.39 0.02,0.51 -0.09,0.48 -0.09,0.84 0,0.61 0.66,1.08 0.9,1.19 0.85,0.4 2.12,0.59 3.19,0.03 0.57,-0.25 0.95,-0.7 0.95,-1.32 0,-0.27 -0.13,-0.5 -0.38,-0.67 l -0.56,-0.25 c -0.19,-0.08 -0.34,-0.36 -0.28,-0.66 0.03,-0.15 0.11,-0.45 0.18,-0.59 0.38,-0.97 1.02,-1.82 1.88,-2.46 l 0.03,-0.03 1.85,2.23 c 0.11,0.26 0.16,0.51 0.21,0.8 0.09,0.37 -0.04,0.63 -0.28,0.75 -0.04,0.03 -0.08,0.03 -0.11,0.05 -0.05,0.02 -0.37,0.15 -0.39,0.18 -0.38,0.22 -0.46,0.54 -0.34,0.93 0.12,0.41 0.36,0.73 0.75,0.99 1.11,0.64 2.36,0.49 3.34,-0.01 0.13,-0.07 0.31,-0.18 0.44,-0.32 0.26,-0.26 0.39,-0.5 0.39,-0.88 0,-0.13 -0.01,-0.24 -0.03,-0.35 z m -5.79,6.78 c 9.67,0 12.73,2.61 15.22,4.57 0.47,0.37 0.87,0.78 1.32,1.14 0.23,0.22 0.45,0.28 0.86,0.14 4.15,-1.42 9.29,-0.3 11.9,2.08 -10.66,0 -47.36,0.01 -58.59,0.01 2.79,-2.41 7.94,-3.51 12.1,-2.09 0.41,0.11 0.62,0.06 0.86,-0.14 0.45,-0.36 0.85,-0.77 1.32,-1.14 2.42,-1.91 5.36,-4.57 15.04,-4.57 z m -6.67,-1.84 c 0,-0.21 0,-0.43 0,-0.61 0,-0.09 0.08,-0.14 0.17,-0.14 0.09,0 2.23,-0.11 2.23,-0.11 0.32,-0.02 0.65,-0.04 0.97,-0.07 0.66,-0.05 0.91,-0.09 2.27,-0.11 2.06,-0.03 4.06,0.02 5.11,0.08 1.05,0.07 2.31,0.2 2.31,0.2 0.22,0 0.23,0.09 0.23,0.09 0.01,0.03 0.02,0.59 0.02,0.71 0,0.41 -0.04,0.45 -0.39,0.44 -0.35,-0.02 -1.55,-0.15 -2.21,-0.19 -2.99,-0.18 -4.47,-0.19 -6.44,-0.12 -2.3,0.08 -3.66,0.27 -3.66,0.27 h -0.44 c -0.14,0 -0.18,-0.27 -0.18,-0.46 z m -31.59,-43.3 c 0,-0.48 0.39,-0.87 0.87,-0.87 h 31.94 c 0,0 0.12,0.13 0.16,0.2 0.04,0.08 0.08,0.15 0.11,0.24 0.25,0.61 0.38,1.18 0.38,1.7 0.05,0.49 0.05,0.98 0.05,1.47 v 3.86 c 0,0.28 -0.03,0.36 -0.24,0.36 h -3.23 c -0.5,0 -0.92,-0.06 -1.39,-0.16 -0.69,-0.16 -1.34,-0.43 -1.92,-0.8 -0.13,-0.08 -0.26,-0.16 -0.38,-0.24 -0.13,-0.09 -0.25,-0.17 -0.36,-0.22 -0.11,-0.11 -0.24,-0.11 -0.3,-0.11 -0.19,0 -0.26,0.09 -0.29,0.16 -0.07,0.11 -0.07,0.24 -0.07,0.3 v 10.59 c 0,0 0.01,0.08 0.01,0.09 0.09,0.3 0.4,0.24 0.49,0.19 0,0 0.18,-0.08 0.24,-0.13 l 0.91,-0.49 c 0.79,-0.45 1.65,-0.62 2.49,-0.62 h 3.95 c 0.14,0 0.25,-0.01 0.25,0.12 0.05,1.27 0.04,4.04 0.03,4.7 0,0.1 -0.09,0.18 -0.18,0.18 h -7.07 c -0.84,0 -1.75,-0.27 -2.48,-0.74 0,0 -1.12,-0.64 -1.14,-0.64 -0.06,-0.02 -0.11,-0.03 -0.17,-0.04 -0.26,-0.02 -0.36,0.18 -0.36,0.36 v 10.65 c 0,0.2 0.24,0.3 0.36,0.3 0.07,0 0.22,0 0.32,-0.09 0.32,-0.16 0.66,-0.33 0.97,-0.54 0.88,-0.47 1.71,-0.69 2.55,-0.69 h 6.65 l 0.52,0.03 v 7.54 c 0,0 -0.01,-0.03 -0.02,-0.04 -0.03,-0.07 -0.07,-0.14 -0.11,-0.24 -0.45,-1.03 -1.43,-1.75 -2.62,-1.93 -0.74,-0.11 -1.5,-0.05 -2.17,0.17 -0.83,0.24 -1.55,0.95 -1.78,1.77 -0.15,0.44 -0.14,0.9 -0.11,1.1 l 0.07,0.23 c 0.08,0.21 0.2,0.29 0.38,0.38 0.19,0.09 0.39,0.1 0.59,0.02 0.05,-0.03 0.11,-0.05 0.18,-0.08 0.07,-0.03 0.14,-0.06 0.18,-0.08 0.11,-0.03 0.19,-0.09 0.26,-0.12 0.06,-0.04 0.12,-0.07 0.16,-0.09 0.18,-0.04 0.24,0.02 0.31,0.12 0.14,0.14 0.24,0.34 0.35,0.54 0.14,0.34 0.32,0.78 0.37,1.22 0.05,0.32 0.11,0.65 0.11,0.95 v 3.64 c -4.08,1.04 -5.99,2.7 -7.81,4.14 -0.17,0.14 -0.33,0.3 -0.49,0.43 -0.23,0.2 -0.55,0.27 -0.85,0.19 -5.3,-1.43 -11.16,0.45 -14.37,4.09 H 96.7 c -0.86,0 -0.94,-0.22 -0.94,-0.94 V 104.3 Z m 76.39,67.57 v 15.7 c 0,11.95 -9.65,20.85 -16.13,23.92 -10.2,4.82 -13.7,6.35 -21.36,9.72 l -0.32,0.14 c -0.22,0.09 -0.46,0.09 -0.67,0 l -2.22,-0.97 c -6.38,-2.8 -10.23,-4.48 -19.55,-8.89 -6.48,-3.07 -16.13,-11.97 -16.13,-23.92 v -27.51 c 0,-0.49 0.08,-0.64 0.53,-0.64 h 63.36 c 0,0 0,0 0,0 h 2.93 c -2.56,2.59 -6.84,6.74 -7.6,7.4 -1.47,1.25 -2.98,2.46 -4.54,3.37 -0.37,0.22 -0.76,0.41 -1.16,0.58 l -0.86,-4.1 c -0.22,-1.25 -1.42,-2.09 -2.67,-1.88 l -26.44,4.57 v 0 c -0.49,0.08 -0.88,0.5 -0.89,1.01 -0.03,1.13 -0.75,1.4 -1.35,1.48 -0.19,0.03 -1.04,0.24 -1.42,-0.91 -0.18,-0.55 -0.63,-0.89 -1.19,-0.72 -0.46,0.14 -0.75,0.57 -0.74,1.03 0,0 0,0.02 0,0.02 0,0.03 0,0.06 0,0.08 0,0.04 0,0.07 0,0.11 l 3.4,19.7 c 0.29,1.65 1.6,2.85 3.22,2.85 0.19,0 0.39,-0.02 0.58,-0.05 l 0.19,-0.03 c 0.1,-0.02 0.28,-0.05 0.28,-0.05 l 5.7,-1.03 c 0.04,0.48 0.3,0.79 0.36,0.81 0.51,0.42 1.12,0.66 1.76,0.66 0.47,0.01 0.99,-0.03 1.45,-0.19 l 0.45,-0.16 c 0.29,-0.09 0.58,-0.05 0.88,0.04 l 0.24,0.09 c 0.67,0.23 1.32,0.44 1.96,0.38 l 0.81,-0.07 c 0.29,-0.03 0.59,0 0.84,0.16 0.67,0.29 1.39,0.46 2.09,0.45 0.53,0.01 1.11,-0.04 1.63,-0.15 0.52,-0.11 1.1,-0.16 1.63,-0.09 1.24,0.06 2.66,0.27 3.86,0.04 0.58,-0.11 1.15,-0.28 1.71,-0.45 l 1.7,-0.57 c 0.29,-0.09 0.51,-0.22 0.79,-0.37 0.94,-0.56 1.77,-1.58 2.39,-2.52 l 0.3,-0.5 c 1.58,-2.6 3.01,-5.22 4.59,-7.82 0.72,-1.12 1.5,-2.13 2.42,-3.03 0.91,-0.91 1.89,-1.76 3,-2.44 l 9.69,-6.88 c 0.14,-0.11 0.32,-0.23 0.47,-0.3 v 1.94 z m -24.96,18.54 c -0.19,-0.16 -0.38,-0.18 -0.62,-0.15 -0.23,0.02 -0.46,0.1 -0.69,0.18 l -1.69,0.93 -3.01,1.51 c -0.73,0.36 -1.46,0.48 -2.27,0.55 l -0.78,-0.05 c -0.06,0 -0.12,-0.05 -0.12,-0.05 -0.04,-0.19 0.15,-0.25 0.15,-0.25 1.11,-0.63 2.16,-1.31 3.27,-1.94 0.55,-0.34 1.11,-0.69 1.66,-1.09 0.5,-0.34 0.93,-0.73 1.37,-1.06 0.27,-0.26 0.54,-0.52 0.69,-0.82 0.05,-0.12 0.04,-0.24 -0.09,-0.34 -0.2,-0.21 -0.49,-0.25 -0.71,-0.11 -0.27,0.2 -0.55,0.34 -0.83,0.49 l -5.63,3.63 c -0.33,0.21 -0.72,0.42 -1.05,0.63 -0.73,0.36 -2.18,0.64 -2.61,0.35 -0.16,-0.1 0.09,-0.24 0.2,-0.31 0.56,-0.29 1.12,-0.57 1.68,-0.86 0.77,-0.49 1.21,-0.87 1.63,-1.16 0.6,-0.39 1.11,-0.85 1.65,-1.32 0.98,-0.85 1.83,-1.81 2.55,-2.81 0.21,-0.25 0.29,-0.44 0.44,-0.69 0.05,-0.12 0.11,-0.35 -0.02,-0.4 -0.19,-0.16 -0.42,-0.14 -0.64,0 -0.27,0.2 -0.55,0.4 -0.82,0.6 l -3.64,3.18 c -0.22,0.2 -0.44,0.33 -0.65,0.53 -0.54,0.46 -1.32,0.9 -1.93,1.19 l -2.43,1.21 c -1.05,0.47 -1.52,0.64 -1.8,0.73 -0.29,0.09 -0.79,0.1 -1.14,0.08 -0.12,0.01 -0.24,-0.04 -0.36,-0.08 0,0 -0.07,-0.11 -0.02,-0.17 0.05,-0.12 0.16,-0.19 0.21,-0.25 0.44,-0.33 0.88,-0.67 1.32,-1 1.21,-0.82 2.36,-1.68 3.51,-2.61 2.29,-1.85 4.39,-3.86 6.29,-6.03 0.42,-0.5 0.41,-0.52 0.83,-1.02 0.47,-0.57 1.18,-1.5 1.18,-1.5 0.46,-0.58 -0.09,-1.04 -0.58,-1 -0.12,0 -2.13,0.62 -3.15,1.01 -1.24,0.52 -2.17,1.44 -3.62,2.37 -0.41,0.26 -1.46,0.92 -1.9,1.09 -1.5,0.61 -2.59,-0.17 -1.86,-0.79 0,0 1.81,-1.61 2.52,-2.2 1.04,-0.8 3.75,-3.67 6.45,-5.57 0.85,-0.6 1.19,-0.72 2.12,-0.83 4.57,-0.59 8.33,-1.85 10.31,-3.2 0.49,-0.34 0.98,-0.65 1.41,-1.04 0.22,-0.19 0.43,-0.39 0.65,-0.59 0.1,-0.13 0.34,-0.15 0.52,-0.05 0.18,0.04 0.37,0.14 0.49,0.19 1.29,0.64 2.36,1.5 3.23,2.71 0.6,0.82 1.1,1.77 1.42,2.74 0.07,0.11 0.14,0.28 0.16,0.39 q 0.17,0.63 -0.32,0.96 c -1.97,1.47 -3.67,3.33 -5,5.44 -0.61,0.99 -1.22,2.04 -1.83,3.04 l -2.54,4.16 -0.66,1.06 c -0.61,0.99 -1.37,1.85 -2.44,2.3 -0.73,0.3 -1.15,0.63 -1.89,0.88 -0.45,0.16 -0.96,0.32 -1.48,0.49 -0.23,0.08 -1.26,0.29 -1.41,0.02 -0.09,-0.15 0.2,-0.25 0.31,-0.31 0.84,-0.43 1.77,-1.07 2.62,-1.45 0.67,-0.32 0.89,-0.51 1.32,-0.84 0.17,-0.24 0.3,-0.51 0.11,-0.67 z m -23.43,-0.11 -3.33,-19.26 25.63,-4.49 c 0.11,-0.02 0.22,0.06 0.24,0.2 l 1.01,4.67 c -0.37,0.1 -0.71,0.17 -1,0.23 -1.04,0.19 -4.42,0.7 -4.94,0.82 -1.03,0.24 -1.45,0.58 -1.82,0.8 -1.29,0.79 -3.75,3.1 -4.98,4.04 -0.38,0.33 -1.15,1.17 -1.53,1.5 -1.23,1.12 -3.17,2.9 -3.43,3.21 -0.65,0.9 -0.22,1.79 0.5,2.53 0.72,0.74 2.05,0.62 2.22,0.6 0.52,-0.05 0.98,-0.15 1.49,-0.37 0.73,-0.3 3.86,-2.43 4.71,-2.97 l 0.45,-0.28 c 0.18,-0.13 0.29,0 0.12,0.14 -0.15,0.14 -0.29,0.3 -0.29,0.3 l -0.3,0.3 c -0.96,1.03 -1.98,2 -3.01,2.91 -1.62,1.5 -3.36,2.89 -5.18,4.17 -0.57,0.46 -1.19,0.88 -1.77,1.34 l -4.95,0.91 c 0.15,-0.34 0.23,-0.86 0.16,-1.3 z m -2.09,1.24 c -0.2,0.28 -0.5,0.47 -0.84,0.53 l -0.19,0.03 c -0.7,0.12 -1.38,-0.35 -1.5,-1.06 l -3.07,-17.74 c 0.23,0.13 0.47,0.2 0.7,0.2 0.17,0 0.35,-0.01 0.53,-0.04 0.57,-0.07 1.14,-0.28 1.51,-0.73 l 3.07,17.83 c 0.06,0.34 -0.02,0.68 -0.22,0.97 z m 50.49,-31.66 v 7.83 c -0.08,0.07 -0.14,0.14 -0.15,0.2 -0.44,0.28 -1.71,1.2 -2.16,1.48 l -7.46,5.01 -0.33,0.2 q -0.11,0.07 -0.24,-0.09 c -0.13,-0.16 -0.21,-0.39 -0.29,-0.62 -0.23,-0.62 -0.32,-0.89 -0.67,-1.45 -0.99,-1.78 -2.18,-3.21 -3.96,-4.23 -0.35,-0.2 -0.52,-0.2 0.12,-0.9 l 8.15,-7.89 h 2.02 c 0,0 1.98,0 1.98,0 h 2.61 c 0.21,0 0.39,0.17 0.39,0.39 v 0.08 z m 0,-2.89 c 0,0.36 -0.09,0.41 -0.59,0.41 H 166 c -3.24,-3.68 -9.04,-5.55 -14.38,-4.02 -0.16,0.05 -0.34,0.01 -0.47,-0.11 -0.22,-0.18 -0.41,-0.39 -0.66,-0.58 -1.99,-1.55 -4.07,-3.21 -8.23,-4.22 -0.01,-0.14 -0.02,-0.28 -0.02,-0.34 v -3.17 c 0,-0.66 0.11,-1.36 0.33,-2 0.05,-0.25 0.15,-0.51 0.28,-0.72 0.03,-0.03 0.07,-0.09 0.11,-0.14 0.02,-0.03 0.04,-0.06 0.06,-0.08 0.05,-0.06 0.2,-0.1 0.27,-0.08 l 0.31,0.16 c 0.16,0.11 0.28,0.16 0.38,0.22 0.11,0.09 0.26,0.09 0.39,0.09 0.43,0 0.74,-0.3 0.74,-0.74 0,-0.34 0,-0.63 -0.12,-0.99 -0.25,-0.81 -0.82,-1.43 -1.54,-1.72 -0.88,-0.38 -1.9,-0.42 -2.94,-0.12 -0.84,0.24 -1.58,0.83 -1.97,1.55 -0.06,0.08 -0.03,0.16 -0.07,0.25 v -7.2 c 0.1,0 7,-0.01 7,-0.01 1.17,0.01 2.05,0.53 2.82,1 0.22,0.17 0.45,0.31 0.68,0.43 0.08,0.05 0.43,0.27 0.55,0.27 0.13,0 0.22,-0.09 0.24,-0.11 0.11,-0.11 0.11,-0.24 0.11,-0.3 v -0.55 c 0.06,-3.09 -0.01,-8.42 -0.01,-10.52 v -0.06 c -0.06,-0.16 -0.2,-0.22 -0.26,-0.25 -0.07,-0.03 -0.18,-0.05 -0.36,0.05 0,0 -0.71,0.55 -0.82,0.6 -0.77,0.52 -1.63,0.8 -2.61,0.85 -0.54,0.06 -1.09,0.06 -1.63,0.06 h -4.42 c -0.19,0 -0.85,-0.02 -1.05,-0.03 -0.21,-0.01 -0.22,-0.26 -0.22,-0.47 v -4.17 c 0,-0.23 0.09,-0.28 0.28,-0.28 h 3.72 c 0.94,0 1.9,0.26 2.71,0.74 0.28,0.17 0.53,0.3 0.86,0.46 l 0.22,0.11 0.13,0.05 c 0.16,0.07 0.37,-0.08 0.42,-0.28 0.05,-0.15 0.04,-0.49 0.04,-0.57 v -9.64 c 0,0 0,-0.51 0,-0.51 0,-0.28 -0.22,-0.34 -0.36,-0.32 -0.07,0.01 -0.29,0.09 -0.29,0.09 -0.29,0.11 -0.58,0.28 -0.86,0.45 -0.72,0.47 -1.57,0.63 -2.44,0.68 -0.82,0.05 -1.66,0.05 -2.46,0.05 0,0 -1.27,-0.01 -1.55,-0.01 -0.28,0 -0.25,-0.12 -0.25,-0.34 v -4.85 c 0,-0.64 0.11,-1.28 0.31,-1.84 0.03,-0.06 0.06,-0.13 0.09,-0.21 0.02,-0.06 0.05,-0.12 0.08,-0.18 l 0.02,-0.05 c 0.07,-0.14 0.16,-0.31 0.17,-0.34 h 31.99 c 0.48,0 0.87,0.39 0.87,0.87 V 157 Z"
           id="path42"
           style="fill:#012850;fill-opacity:1" />
        <path
           class="cls-1"
           d="m 333.38,176.63 0.13,0.51 c 1.93,-0.39 6.94,-0.51 8.99,-0.51 h 47.13 c 0,-1.16 3.98,-8.73 4.62,-10.02 l -0.64,-0.64 c -8.09,6.04 -21.32,7.71 -35.45,7.71 -3.47,0 -6.93,0 -10.4,-0.13 -0.39,-8.22 -0.26,-18.88 -0.26,-38.66 v -0.13 c 28.51,0 29.79,1.03 31.59,5.52 l 0.64,-0.39 c -0.51,-2.44 -0.64,-3.98 -0.64,-6.68 0,-2.7 0.13,-4.37 0.64,-6.81 l -0.64,-0.13 c -1.41,4.5 -2.95,5.14 -31.59,5.52 0,-17.98 -0.13,-26.2 0.26,-36.47 3.6,-0.38 7.06,-0.26 10.27,-0.26 12.97,0 23.12,1.93 29.67,7.96 l 0.64,-0.64 c -0.77,-1.8 -3.08,-8.48 -3.08,-10.02 h -42.77 c -1.93,0 -7.19,0 -8.99,-0.64 l -0.13,0.64 c 2.57,0.9 3.85,2.7 3.98,5.39 0.39,8.22 0.26,16.82 0.26,36.73 0,19.91 0.13,28.25 -0.26,36.6 -0.13,2.18 -1.41,4.11 -3.98,5.52 z"
           id="path44"
           style="fill:#012850;fill-opacity:1" />
        <path
           class="cls-1"
           d="m 416.35,176.63 0.13,0.51 c 1.93,-0.39 6.94,-0.51 8.99,-0.51 h 44.95 c 0,-1.28 3.85,-8.73 4.5,-10.02 l -0.64,-0.64 c -8.73,6.55 -21.45,7.83 -35.96,7.71 -2.44,0 -5.01,0 -7.58,-0.13 -0.39,-8.22 -0.26,-19.01 -0.26,-39.04 0,-20.03 -0.13,-28.51 0.26,-36.73 0.13,-2.7 1.41,-4.5 3.98,-5.39 l -0.13,-0.64 c -1.67,0.64 -7.06,0.64 -8.99,0.64 -1.93,0 -7.19,0 -9.12,-0.64 l -0.13,0.64 c 2.57,0.9 3.85,2.7 3.98,5.39 0.39,8.22 0.26,16.82 0.26,36.73 0,19.91 0.13,28.25 -0.26,36.6 -0.13,2.18 -1.41,4.11 -3.98,5.52 z"
           id="path46"
           style="fill:#012850;fill-opacity:1" />
        <path
           class="cls-1"
           d="m 503.16,95.47 v 39.04 c 0,20.16 0.13,28.25 -0.26,36.6 -0.13,2.57 -1.41,4.11 -4.11,5.52 l 0.13,0.51 c 1.8,-0.39 7.06,-0.51 9.12,-0.51 2.06,0 7.19,0.13 8.99,0.51 l 0.26,-0.51 c -2.7,-1.28 -3.98,-3.08 -4.11,-5.52 -0.39,-8.35 -0.26,-16.44 -0.26,-36.6 V 95.47 c 12.33,-0.13 22.6,1.28 31.34,7.58 l 0.64,-0.64 c -0.64,-1.67 -3.08,-8.99 -3.08,-10.02 h -67.68 c 0,1.03 -2.44,8.48 -3.08,10.15 l 0.64,0.51 c 8.73,-6.04 19.26,-7.71 31.47,-7.58 z"
           id="path48"
           style="fill:#012850;fill-opacity:1" />
        <path
           class="cls-1"
           d="m 563.52,176.63 0.13,0.51 c 1.93,-0.39 6.94,-0.51 8.99,-0.51 h 47.13 c 0,-1.16 3.98,-8.73 4.62,-10.02 l -0.64,-0.64 c -8.09,6.04 -21.32,7.71 -35.45,7.71 -3.47,0 -6.94,0 -10.4,-0.13 -0.39,-8.22 -0.26,-18.88 -0.26,-38.66 v -0.13 c 28.51,0 29.79,1.03 31.59,5.52 l 0.64,-0.39 c -0.51,-2.44 -0.64,-3.98 -0.64,-6.68 0,-2.7 0.13,-4.37 0.64,-6.81 l -0.64,-0.13 c -1.41,4.5 -2.95,5.14 -31.59,5.52 0,-17.98 -0.13,-26.2 0.26,-36.47 3.6,-0.38 7.06,-0.26 10.27,-0.26 12.97,0 23.12,1.93 29.67,7.96 l 0.64,-0.64 c -0.77,-1.8 -3.08,-8.48 -3.08,-10.02 h -42.77 c -1.93,0 -7.19,0 -8.99,-0.64 l -0.13,0.64 c 2.57,0.9 3.85,2.7 3.98,5.39 0.39,8.22 0.26,16.82 0.26,36.73 0,19.91 0.13,28.25 -0.26,36.6 -0.13,2.18 -1.41,4.11 -3.98,5.52 z"
           id="path50"
           style="fill:#012850;fill-opacity:1" />
      </g>
      <g
         id="g95"
         style="fill:#012850;fill-opacity:1">
        <path
           class="cls-1"
           d="m 812.83,104.04 c -0.33,0.67 -2.81,5.56 -2.81,6.23 h -22.58 c -3.15,0 -5.23,0.07 -7.57,0.27 l -0.07,-0.27 c 0.87,-0.47 2.01,-0.94 2.08,-2.88 0.2,-4.29 0.13,-8.78 0.13,-19.1 0,-10.32 0.07,-14.87 -0.13,-19.09 -0.07,-1.94 -1.21,-2.41 -2.08,-2.88 l 0.07,-0.33 c 2.35,0.2 4.49,0.33 7.37,0.33 h 20.5 c 0,1 1.61,5.23 2.14,6.43 l -0.33,0.4 c -4.35,-3.95 -9.71,-4.96 -15.88,-4.96 -1.54,0 -3.01,-0.07 -4.62,0.13 -0.2,3.95 -0.13,6.5 -0.13,9.78 v 8.51 c 13.33,-0.2 14.87,-0.8 15.61,-3.55 l 0.33,0.07 c -0.2,1.61 -0.27,2.68 -0.27,4.49 0,1.81 0.07,2.95 0.27,4.49 l -0.33,0.07 c -0.74,-2.95 -2.28,-3.48 -15.61,-3.48 v 10.05 c 0,4.02 -0.07,6.83 0.13,9.45 h 2.61 c 8.24,0 15.95,-0.94 20.84,-4.42 l 0.33,0.27 z"
           id="path53"
           style="fill:#012850;fill-opacity:1" />
        <path
           class="cls-1"
           d="m 870.21,88.29 c 0,14.14 -11.46,23.38 -24.52,23.38 -13.06,0 -24.52,-9.25 -24.52,-23.38 0,-14.13 11.46,-23.38 24.52,-23.38 13.06,0 24.52,9.18 24.52,23.38 z m -7.5,0 c 0,-12.86 -7.91,-20.7 -17.02,-20.7 -9.11,0 -17.02,7.84 -17.02,20.7 0,12.86 7.91,20.64 17.02,20.64 9.11,0 17.02,-7.84 17.02,-20.64 z m -18.69,-32.5 c 0,1.81 -1.34,3.15 -3.15,3.15 -1.81,0 -3.15,-1.34 -3.15,-3.15 0,-1.81 1.34,-3.22 3.15,-3.22 1.81,0 3.15,1.41 3.15,3.22 z m 9.72,0 c 0,1.81 -1.34,3.15 -3.15,3.15 -1.81,0 -3.15,-1.34 -3.15,-3.15 0,-1.81 1.34,-3.22 3.15,-3.22 1.81,0 3.15,1.41 3.15,3.22 z"
           id="path55"
           style="fill:#012850;fill-opacity:1" />
        <path
           class="cls-1"
           d="m 917.63,73.08 c -4.56,-3.42 -10.59,-4.56 -15.95,-4.56 v 19.76 c 0,10.52 -0.07,14.74 0.13,19.1 0.07,1.54 0.67,2.28 2.08,2.88 l -0.07,0.27 c -0.94,-0.2 -4.56,-0.27 -5.56,-0.27 -1.07,0 -4.69,0.07 -5.63,0.27 l -0.07,-0.27 c 1.54,-0.6 2.01,-1.34 2.08,-2.88 0.2,-4.36 0.13,-8.58 0.13,-19.1 V 68.52 c -5.36,0 -11.46,1.21 -16.01,4.62 l -0.33,-0.34 c 0.33,-1 2.14,-5.96 2.14,-6.5 h 35.31 c 0,0.54 1.74,5.49 2.08,6.43 l -0.33,0.33 z"
           id="path57"
           style="fill:#012850;fill-opacity:1" />
        <path
           class="cls-1"
           d="m 971.59,66.31 c -1.27,0.47 -2.61,1.47 -3.62,3.42 -2.14,4.29 -3.95,7.77 -8.78,17.89 -4.82,10.18 -8.91,19.09 -10.65,23.38 h -0.94 c -1.74,-4.29 -5.9,-13.2 -10.72,-23.38 -4.82,-10.18 -6.37,-13.07 -8.51,-17.35 -1,-1.94 -2.61,-3.48 -3.95,-3.95 l 0.07,-0.33 c 1.27,0.2 4.69,0.33 6.03,0.33 1.34,0 5.83,-0.13 6.9,-0.33 l 0.07,0.33 c -1.88,0.8 -2.28,1.47 -1.74,2.88 1.81,4.29 3.75,8.17 8.44,18.42 1.61,3.55 4.22,9.72 6.37,14.2 2.08,-4.56 4.22,-9.71 6.36,-14.34 2.81,-6.03 6.03,-14.07 7.64,-18.29 0.54,-1.27 0.13,-2.01 -1.81,-2.88 l 0.07,-0.33 c 1.07,0.2 3.15,0.33 4.49,0.33 1.34,0 2.95,-0.13 4.22,-0.33 l 0.07,0.33 z"
           id="path59"
           style="fill:#012850;fill-opacity:1" />
        <path
           class="cls-1"
           d="m 1024.75,88.29 c 0,14.14 -11.46,23.38 -24.52,23.38 -13.06,0 -24.52,-9.25 -24.52,-23.38 0,-14.13 11.46,-23.38 24.52,-23.38 13.06,0 24.52,9.18 24.52,23.38 z m -7.5,0 c 0,-12.86 -7.91,-20.7 -17.02,-20.7 -9.11,0 -17.02,7.84 -17.02,20.7 0,12.86 7.91,20.64 17.02,20.64 9.11,0 17.02,-7.84 17.02,-20.64 z m -18.69,-32.5 c 0,1.81 -1.34,3.15 -3.15,3.15 -1.81,0 -3.15,-1.34 -3.15,-3.15 0,-1.81 1.34,-3.22 3.15,-3.22 1.81,0 3.15,1.41 3.15,3.22 z m 9.72,0 c 0,1.81 -1.34,3.15 -3.15,3.15 -1.81,0 -3.15,-1.34 -3.15,-3.15 0,-1.81 1.34,-3.22 3.15,-3.22 1.81,0 3.15,1.41 3.15,3.22 z"
           id="path61"
           style="fill:#012850;fill-opacity:1" />
        <path
           class="cls-1"
           d="m 1053.82,83.67 c 8.44,3.62 13.4,6.9 13.4,14.87 0,8.58 -7.37,13.13 -15.95,13.13 -4.76,0 -10.59,-1.61 -13.47,-4.29 l -1.14,-8.31 0.54,-0.2 c 3.55,7.44 9.31,10.25 14.2,10.25 5.69,0 9.71,-3.08 9.71,-8.91 0,-4.36 -2.88,-6.83 -10.85,-10.39 -8.84,-3.89 -12.46,-7.17 -12.46,-12.66 0,-8.24 6.5,-12.26 14.34,-12.26 5.09,0 9.38,1.21 11.79,3.55 l 0.67,7.24 -0.33,0.27 c -2.68,-6.16 -7.77,-8.31 -12.46,-8.31 -5.16,0 -8.17,3.08 -8.17,6.83 0,3.75 2.28,5.96 10.18,9.18 z"
           id="path63"
           style="fill:#012850;fill-opacity:1" />
        <path
           class="cls-1"
           d="m 1119.35,66.25 c -1.41,0.74 -1.88,1.41 -2.08,2.95 -0.2,4.29 -0.13,18.83 -0.13,29.28 0,13.73 -5.09,21.57 -16.15,28.01 l -0.13,-0.47 c 5.7,-5.36 9.45,-10.99 9.45,-27.54 0,-10.45 0.07,-24.99 -0.13,-29.28 -0.2,-1.54 -0.67,-2.21 -2.08,-2.95 l 0.07,-0.27 c 0.87,0.33 4.49,0.33 5.56,0.33 1,0 4.62,-0.13 5.56,-0.33 l 0.07,0.27 z"
           id="path65"
           style="fill:#012850;fill-opacity:1" />
        <path
           class="cls-1"
           d="m 1180.38,88.29 c 0,14.14 -11.46,23.38 -24.52,23.38 -13.06,0 -24.52,-9.25 -24.52,-23.38 0,-14.13 11.46,-23.38 24.52,-23.38 13.06,0 24.52,9.18 24.52,23.38 z m -7.5,0 c 0,-12.86 -7.91,-20.7 -17.02,-20.7 -9.11,0 -17.02,7.84 -17.02,20.7 0,12.86 7.91,20.64 17.02,20.64 9.11,0 17.02,-7.84 17.02,-20.64 z m -8.38,-31.56 c -3.01,1.27 -9.25,2.28 -12.39,2.48 l -0.2,-0.4 c 3.55,-1.54 7.84,-4.15 10.72,-6.9 l 1.88,4.82 z"
           id="path67"
           style="fill:#012850;fill-opacity:1" />
        <path
           class="cls-1"
           d="m 1227.95,103.3 c -0.87,1.41 -2.34,5.29 -2.68,6.97 h -35.24 l -0.33,-0.47 c 3.02,-4.29 7.44,-11.05 14.34,-21.51 6.97,-10.39 10.32,-15.61 13,-19.9 -1.14,0 -2.41,-0.07 -3.69,-0.07 -7.91,0 -17.42,0.8 -22.11,5.36 l -0.4,-0.13 c 0.87,-1.61 2.48,-5.9 2.81,-7.24 h 32.5 l 0.27,0.6 c -3.01,4.36 -7.44,10.92 -14.2,21.37 -6.77,10.52 -10.32,15.61 -13,19.9 1.34,0.07 2.81,0.07 4.36,0.07 8.04,0 18.76,-0.94 24.12,-5.36 l 0.27,0.4 z"
           id="path69"
           style="fill:#012850;fill-opacity:1" />
        <path
           class="cls-1"
           d="m 1256.25,83.67 c 8.44,3.62 13.4,6.9 13.4,14.87 0,8.58 -7.37,13.13 -15.95,13.13 -4.76,0 -10.59,-1.61 -13.47,-4.29 l -1.14,-8.31 0.54,-0.2 c 3.55,7.44 9.31,10.25 14.21,10.25 5.69,0 9.71,-3.08 9.71,-8.91 0,-4.36 -2.88,-6.83 -10.85,-10.39 -8.84,-3.89 -12.46,-7.17 -12.46,-12.66 0,-8.24 6.5,-12.26 14.34,-12.26 5.09,0 9.38,1.21 11.79,3.55 l 0.67,7.24 -0.33,0.27 c -2.68,-6.16 -7.77,-8.31 -12.46,-8.31 -5.16,0 -8.17,3.08 -8.17,6.83 0,3.75 2.28,5.96 10.18,9.18 z"
           id="path71"
           style="fill:#012850;fill-opacity:1" />
        <path
           class="cls-1"
           d="m 1314.85,104.04 c -0.33,0.67 -2.81,5.56 -2.81,6.23 h -22.58 c -3.15,0 -5.23,0.07 -7.57,0.27 l -0.07,-0.27 c 0.87,-0.47 2.01,-0.94 2.08,-2.88 0.2,-4.29 0.13,-8.78 0.13,-19.1 0,-10.32 0.07,-14.87 -0.13,-19.09 -0.07,-1.94 -1.21,-2.41 -2.08,-2.88 l 0.07,-0.33 c 2.34,0.2 4.49,0.33 7.37,0.33 h 20.5 c 0,1 1.61,5.23 2.14,6.43 l -0.33,0.4 c -4.35,-3.95 -9.71,-4.96 -15.88,-4.96 -1.54,0 -3.02,-0.07 -4.62,0.13 -0.2,3.95 -0.13,6.5 -0.13,9.78 v 8.51 c 13.33,-0.2 14.88,-0.8 15.61,-3.55 l 0.33,0.07 c -0.2,1.61 -0.27,2.68 -0.27,4.49 0,1.81 0.07,2.95 0.27,4.49 l -0.33,0.07 c -0.74,-2.95 -2.28,-3.48 -15.61,-3.48 v 10.05 c 0,4.02 -0.07,6.83 0.13,9.45 h 2.61 c 8.24,0 15.95,-0.94 20.84,-4.42 l 0.33,0.27 z"
           id="path73"
           style="fill:#012850;fill-opacity:1" />
        <path
           class="cls-1"
           d="m 1353.93,73.15 c -4.35,-3.95 -9.71,-4.96 -15.88,-4.96 -1.54,0 -3.02,-0.07 -4.62,0.13 -0.2,3.95 -0.13,6.5 -0.13,9.78 v 8.51 c 13.33,-0.2 14.88,-0.8 15.61,-3.55 l 0.33,0.07 c -0.2,1.61 -0.27,2.68 -0.27,4.49 0,1.81 0.07,2.95 0.27,4.49 l -0.33,0.07 c -0.74,-2.95 -2.28,-3.48 -15.61,-3.48 v 9.78 c 0,3.82 -0.07,6.3 0.13,8.91 0.07,1.54 0.54,2.14 2.08,2.88 l -0.07,0.27 c -1.54,-0.2 -4.29,-0.27 -5.43,-0.27 -1.47,0 -4.22,-0.07 -5.76,0.27 l -0.07,-0.27 c 1.54,-0.74 2.01,-1.34 2.08,-2.88 0.2,-4.29 0.13,-8.78 0.13,-19.1 0,-10.32 0.07,-14.87 -0.13,-19.09 -0.07,-1.54 -0.54,-2.14 -2.08,-2.88 l 0.07,-0.33 c 2.34,0.2 5.9,0.33 8.24,0.33 h 19.63 c 0,1 1.61,5.23 2.14,6.43 z"
           id="path75"
           style="fill:#012850;fill-opacity:1" />
        <path
           class="cls-1"
           d="m 824.16,167.58 -0.4,0.13 c -3.15,-6.77 -8.84,-11.12 -17.49,-11.12 -9.65,0 -18.02,8.38 -18.02,20.7 0,12.32 8.38,20.64 18.02,20.64 8.58,0 13.6,-2.68 17.35,-8.31 l 0.4,0.13 -0.13,4.29 c -4.09,4.29 -10.99,6.63 -17.62,6.63 -13.8,0 -25.8,-9.25 -25.8,-23.38 0,-14.13 11.99,-23.38 25.8,-23.38 6.63,0 13.47,2.21 17.62,6.57 z"
           id="path77"
           style="fill:#012850;fill-opacity:1" />
        <path
           class="cls-1"
           d="m 884.44,177.29 c 0,14.14 -11.46,23.38 -24.52,23.38 -13.06,0 -24.52,-9.25 -24.52,-23.38 0,-14.13 11.46,-23.38 24.52,-23.38 13.06,0 24.52,9.18 24.52,23.38 z m -7.5,0 c 0,-12.86 -7.91,-20.7 -17.02,-20.7 -9.11,0 -17.02,7.84 -17.02,20.7 0,12.86 7.91,20.64 17.02,20.64 9.11,0 17.02,-7.84 17.02,-20.64 z"
           id="path79"
           style="fill:#012850;fill-opacity:1" />
        <path
           class="cls-1"
           d="m 929.82,193.04 c -0.33,0.67 -2.81,5.56 -2.81,6.23 h -22.24 c -2.34,0 -5.56,0.07 -7.91,0.27 l -0.07,-0.27 c 1.54,-0.74 2.01,-1.34 2.08,-2.88 0.2,-4.29 0.13,-8.78 0.13,-19.1 0,-10.32 0.07,-14.87 -0.13,-19.09 -0.07,-1.54 -0.74,-2.35 -2.08,-2.95 l 0.07,-0.27 c 1.01,0.33 4.56,0.33 5.63,0.33 1,0 4.62,-0.13 5.56,-0.33 l 0.07,0.27 c -1.54,0.6 -2.01,1.54 -2.08,2.95 -0.2,4.22 -0.13,8.71 -0.13,19.09 0,10.38 -0.07,15.54 0.13,19.9 9.05,0.2 18.09,-0.47 23.45,-4.42 z"
           id="path81"
           style="fill:#012850;fill-opacity:1" />
        <path
           class="cls-1"
           d="m 971.52,193.04 c -0.33,0.67 -2.81,5.56 -2.81,6.23 h -22.24 c -2.35,0 -5.56,0.07 -7.91,0.27 l -0.07,-0.27 c 1.54,-0.74 2.01,-1.34 2.08,-2.88 0.2,-4.29 0.13,-8.78 0.13,-19.1 0,-10.32 0.07,-14.87 -0.13,-19.09 -0.07,-1.54 -0.74,-2.35 -2.08,-2.95 l 0.07,-0.27 c 1.01,0.33 4.56,0.33 5.63,0.33 1,0 4.62,-0.13 5.56,-0.33 l 0.07,0.27 c -1.54,0.6 -2.01,1.54 -2.08,2.95 -0.2,4.22 -0.13,8.71 -0.13,19.09 0,10.38 -0.07,15.54 0.13,19.9 9.05,0.2 18.09,-0.47 23.45,-4.42 z"
           id="path83"
           style="fill:#012850;fill-opacity:1" />
        <path
           class="cls-1"
           d="m 1013.22,193.04 c -0.33,0.67 -2.81,5.56 -2.81,6.23 h -22.58 c -3.15,0 -5.23,0.07 -7.57,0.27 l -0.07,-0.27 c 0.87,-0.47 2.01,-0.94 2.08,-2.88 0.2,-4.29 0.13,-8.78 0.13,-19.1 0,-10.32 0.07,-14.87 -0.13,-19.09 -0.07,-1.94 -1.21,-2.41 -2.08,-2.88 l 0.07,-0.33 c 2.35,0.2 4.49,0.33 7.37,0.33 h 20.5 c 0,1 1.61,5.23 2.14,6.43 l -0.33,0.4 c -4.35,-3.95 -9.71,-4.96 -15.88,-4.96 -1.54,0 -3.01,-0.07 -4.62,0.13 -0.2,3.95 -0.13,6.5 -0.13,9.78 v 8.51 c 13.33,-0.2 14.87,-0.8 15.61,-3.55 l 0.33,0.07 c -0.2,1.61 -0.27,2.68 -0.27,4.49 0,1.81 0.07,2.95 0.27,4.49 l -0.33,0.07 c -0.74,-2.95 -2.28,-3.48 -15.61,-3.48 v 10.05 c 0,4.02 -0.07,6.83 0.13,9.45 h 2.61 c 8.24,0 15.95,-0.94 20.84,-4.42 l 0.33,0.27 z"
           id="path85"
           style="fill:#012850;fill-opacity:1" />
        <path
           class="cls-1"
           d="m 1068.79,180.37 c -1.54,0.74 -2.08,1.27 -2.08,2.34 v 8.24 c -4.29,6.16 -11.26,9.71 -19.36,9.71 -13.8,0 -25.8,-9.25 -25.8,-23.38 0,-14.13 11.99,-23.38 25.8,-23.38 6.63,0 13.47,2.21 17.62,6.57 l 0.27,7.1 -0.4,0.13 c -3.15,-6.77 -8.84,-11.12 -17.49,-11.12 -9.65,0 -18.02,8.38 -18.02,20.7 0,12.32 8.17,20.64 18.02,20.64 4.62,0 8.64,-0.87 11.93,-2.68 v -12.53 c 0,-1 -0.54,-1.61 -2.08,-2.34 l 0.07,-0.33 c 1.61,0.2 5.03,0.27 6.16,0.27 1.07,0 3.62,-0.07 5.29,-0.27 z"
           id="path87"
           style="fill:#012850;fill-opacity:1" />
        <path
           class="cls-1"
           d="m 1091.42,199.54 c -0.87,-0.2 -4.56,-0.27 -5.56,-0.27 -1.14,0 -4.56,0.07 -5.63,0.27 l -0.07,-0.27 c 1.41,-0.74 2.01,-1.34 2.08,-2.88 0.2,-4.29 0.13,-8.78 0.13,-19.1 0,-10.32 0.07,-14.87 -0.13,-19.09 -0.07,-1.41 -0.74,-2.35 -2.08,-2.95 l 0.07,-0.27 c 1,0.33 4.56,0.33 5.63,0.33 1,0 4.62,-0.13 5.56,-0.33 l 0.07,0.27 c -1.34,0.6 -2.01,1.34 -2.08,2.95 -0.2,4.22 -0.13,8.71 -0.13,19.09 0,10.38 -0.07,14.81 0.13,19.1 0.07,1.61 0.74,2.28 2.08,2.88 z"
           id="path89"
           style="fill:#012850;fill-opacity:1" />
        <path
           class="cls-1"
           d="m 1145.26,155.31 c -1.41,0.6 -2.01,1.34 -2.08,2.88 -0.2,4.22 -0.27,13.4 -0.27,23.79 -0.07,11.79 -6.5,18.69 -17.42,18.69 -10.25,0 -19.5,-4.89 -19.5,-17.96 0,-10.38 0.07,-20.23 -0.13,-24.52 -0.07,-1.54 -0.67,-2.14 -2.08,-2.88 l 0.07,-0.33 c 0.94,0.2 4.42,0.33 5.56,0.33 1.07,0 4.76,-0.13 5.63,-0.33 l 0.07,0.33 c -1.54,0.6 -2.01,1.34 -2.08,2.88 -0.2,4.29 -0.13,14.14 -0.13,24.52 0,9.72 4.62,14.27 13.54,14.27 9.85,0 14.27,-4.62 14.27,-15.01 0,-14.14 -0.13,-19.43 -0.33,-23.79 -0.07,-1.41 -0.54,-2.14 -2.08,-2.88 l 0.07,-0.33 c 1,0.2 2.34,0.33 3.42,0.33 1,0 2.41,-0.13 3.42,-0.33 l 0.07,0.33 z"
           id="path91"
           style="fill:#012850;fill-opacity:1" />
        <path
           class="cls-1"
           d="m 1207.51,199.54 c -0.94,-0.2 -4.56,-0.27 -5.56,-0.27 -1.07,0 -4.69,0.07 -5.63,0.27 l -0.07,-0.27 c 1.27,-0.6 2.01,-1.21 2.08,-2.88 0.2,-4.36 0.13,-8.58 0.13,-19.1 0,-8.91 0.27,-13.47 0.27,-17.29 -1.94,3.89 -3.89,8.44 -7.64,17.09 -4.82,10.99 -7.04,17.22 -8.84,21.51 h -2.21 c -1.81,-4.29 -4.96,-10.85 -9.85,-21.31 -4.29,-9.18 -5.9,-12.8 -7.71,-16.55 l -0.47,-0.8 c 0.2,3.95 0.47,8.58 0.47,17.35 0,10.32 0.2,14.81 0.4,19.1 0.07,1.61 0.8,2.28 2.08,2.88 l -0.07,0.27 c -1,-0.2 -2.61,-0.27 -3.68,-0.27 -1,0 -2.68,0.07 -3.69,0.27 l -0.07,-0.27 c 1.41,-0.74 2.01,-1.27 2.08,-2.88 0.2,-4.29 0.4,-8.78 0.4,-19.1 0,-10.32 0.07,-14.87 -0.13,-19.09 -0.07,-1.41 -0.54,-2.14 -2.08,-2.88 l 0.07,-0.33 c 0.74,0.2 3.35,0.33 4.69,0.33 1.07,0 4.49,-0.13 5.16,-0.13 1.88,4.36 5.23,11.59 10.05,22.11 l 5.83,12.4 c 2.08,-4.56 4.02,-9.45 5.36,-12.6 4.76,-10.92 7.3,-17.62 9.11,-21.91 0.54,0 3.55,0.13 4.62,0.13 1.61,0 3.35,-0.13 4.89,-0.33 l 0.07,0.33 c -1.54,0.6 -2.01,1.34 -2.08,2.88 -0.2,4.22 -0.13,8.71 -0.13,19.09 0,10.38 -0.07,14.81 0.13,19.1 0.07,1.54 0.54,2.14 2.08,2.88 l -0.07,0.27 z"
           id="path93"
           style="fill:#012850;fill-opacity:1" />
      </g>
      <g
         id="nagy_vonal"
         style="fill:#012850;fill-opacity:1">
        <path
           class="cls-1"
           d="m 698.34,210.87 c -0.55,0 -1,-0.45 -1,-1 v -152 c 0,-0.55 0.45,-1 1,-1 0.55,0 1,0.45 1,1 v 152 c 0,0.55 -0.45,1 -1,1 z"
           id="path97"
           style="fill:#012850;fill-opacity:1" />
      </g>
    </g>
  </g>
</svg>
